<?xml version="1.0" encoding="utf-8"?><svg version="1.1" id="Layer_1" xmlns="http://www.w3.org/2000/svg" xmlns:xlink="http://www.w3.org/1999/xlink" x="0px" y="0px" viewBox="0 0 122.88 62.77" style="enable-background:new 0 0 122.88 62.77" xml:space="preserve"><style type="text/css"><![CDATA[
	.st0{fill:#2A73CC;}
]]></style><g><path class="st0" d="M122.84,30.39c-0.02-0.48-0.05-0.95-0.09-1.43c0,0,0,0,0-0.01c0,0,0,0,0-0.01 c-0.46-5.18-2.17-10.03-5.08-14.41c-1.3-1.95-2.78-3.73-4.44-5.32c-2.42-2.33-5.23-4.26-8.39-5.78C100.09,1.15,94.83,0,89.22,0 c-0.55,0-1.12,0.01-1.7,0.03c-3.94,0.18-7.75,0.92-11.33,2.24c-3.61,1.31-6.76,3.03-9.33,5.1c-0.52,0.42-1.09,0.93-1.7,1.49 l-0.44,0.43l-0.6,0.64h0h0l-0.28,0.28l-0.14,0.15l-0.72,0.76c-0.53,0.6-1.04,1.2-1.51,1.78l0-0.01l-0.02-0.02 c-0.98,1.2-1.9,2.43-2.56,3.55c-0.45,0.71-0.9,1.45-1.32,2.19L51.7,30.49l0.01,0.01l-0.31,0.6l-0.65,1.31 c-1.29,2.61-2.67,5.2-4.21,7.35c-3.44,3.77-7.32,5.61-12.32,5.61c-0.35,0-0.71-0.02-1.07-0.04c-3.01-0.12-5.59-0.83-7.88-2.19 c-0.24-0.15-0.48-0.29-0.71-0.45c-1.87-1.24-3.3-2.84-4.38-4.83c-1.21-2.26-1.75-4.56-1.67-7.01c0.01-0.07,0.01-0.12,0.01-0.18 c0.16-3.89,1.65-6.92,4.63-9.53c0.73-0.63,1.49-1.16,2.28-1.63c0.11-0.07,0.22-0.13,0.34-0.19c2.22-1.21,4.75-1.81,7.64-1.81 l0.9,0.03c4.6,0.18,8.15,1.61,10.98,4.42l8.88-15.94c-2.12-1.42-4.52-2.64-7.16-3.64c-0.1-0.04-0.2-0.08-0.31-0.11 c-0.32-0.11-0.63-0.23-0.95-0.33c-2.81-0.94-5.76-1.52-8.79-1.78l0,0c-0.08-0.01-0.16-0.02-0.23-0.03 c-0.46-0.03-0.94-0.09-1.4-0.11C34.82,0.01,34.3,0,33.81,0h-0.29c-5.58,0.02-10.77,1.16-15.51,3.43C12.7,5.99,8.4,9.72,5.2,14.52 c-3.18,4.8-4.92,10.14-5.17,15.86C0.01,30.87,0,31.35,0,31.83c0,8,2.91,15.04,8.71,20.95c6.05,6.2,13.93,9.54,23.38,9.94 c0.61,0.03,1.2,0.04,1.8,0.04c5.35,0,10.3-0.95,14.74-2.86c1.11-0.47,2.19-1.03,3.29-1.65c0.6-0.34,1.16-0.71,1.72-1.1l0.42-0.28 l0.7-0.48c0.84-0.6,1.63-1.25,2.39-1.95l0.27-0.25c0.45-0.43,0.9-0.86,1.32-1.31l1.59-1.8l0.61-0.76l0.28-0.42l0.28-0.41 c2.36-3.97,10.06-18.43,10.06-18.43l0-0.03l0.46-0.88l0.38-0.69c1.13-2.07,1.95-3.53,3.04-5.07l0.03-0.05 c2.53-3.67,6.88-6.28,12.01-6.72c8.6-0.74,16.14,4.91,16.83,12.62c0.69,7.71-5.73,14.57-14.33,15.31 c-1.79,0.15-3.53,0.03-5.17-0.33l-0.04,0.02c-6.31-1.31-10.33-5.92-12.31-7.97l-8.28,15.22c0,0,2.57,2.59,4.33,3.89 c1.77,1.29,4.05,2.56,5.87,3.35c4.42,1.89,9.22,3.02,14.53,3.02c0.62,0,0.49,0,1.13-0.03c9.45-0.39,17.86-4.01,23.94-10.21 c5.75-5.89,8.87-12.61,8.9-20.57l0-0.24C122.87,31.28,122.86,30.83,122.84,30.39L122.84,30.39z"/></g></svg>