<svg xmlns="http://www.w3.org/2000/svg" viewBox="0 0 333333 333333" shape-rendering="geometricPrecision" text-rendering="geometricPrecision" image-rendering="optimizeQuality" fill-rule="evenodd" clip-rule="evenodd"><path d="M302077 0H31255C14069 0 1 14068 1 31256v270822c0 17186 14068 31254 31254 31254h270822c17186 0 31254-14068 31254-31254l2-270824C333333 14068 319265 0 302079 0h-2zM107407 94007v113205h37729v21457c583-556 911-854 1224-1167 6362-6346 12741-12677 19065-19063 903-911 1804-1280 3085-1276 13185 43 26371 52 39556-25 968-6 2172-506 2861-1187 8220-8107 16348-16307 24547-24436 919-911 1252-1820 1250-3088-31-27486-24-54972-24-82457v-1965H107407zm102072 80521h-15659v-47913h15659v47913zm-42893-47910v47847h-15944v-47847h15944zm-42820 128550v-21199H80826c-43-888-106-1575-106-2264l-4-31784v-24306c4-21187 11-42377 23-63569 0-1154 205-2355 565-3451 3164-9629 6411-19231 9559-28865 408-1248 922-1695 2253-1708h64c52548 41 105096 35 157644 35 515-1 1030 0 1762 0v2226c0 34376-9 68752 31 103128v67c-12 1398-438 2373-1433 3364-15246 15185-30461 30400-45646 45646-1007 1011-1994 1434-3430 1424-9249-65-18500 10-27750-72-1772-16-3038 447-4299 1737-6102 6236-12294 12385-18502 18515-590 583-1517 1159-2294 1167-3874 38-7749 51-11624 53h-2325c-3617-2-7233-9-10849-14-182 0-365-65-700-130z" fill="#6441a5"/></svg>